<svg id="レイヤー_1" data-name="レイヤー 1" xmlns="http://www.w3.org/2000/svg" viewBox="0 0 92.218 12.008"><g id="レイヤー_2" data-name="レイヤー 2"><g id="レイヤー_1-2" data-name="レイヤー 1-2"><path d="M5.1,11.68A10.807,10.807,0,0,0,4.5,9.6L3.21,5.88,2.73,4.39c-.15-.5-.15-.5-.22-.7.08.89.14,2,.14,2.78v3a15.736,15.736,0,0,0,.11,2.17H0a16.553,16.553,0,0,0,.11-2.1V2.21A20.14,20.14,0,0,0,0,0H3.7a10.721,10.721,0,0,0,.53,2l2.1,6L8.42,2a10.7,10.7,0,0,0,.52-2h3.71a17.8,17.8,0,0,0-.11,2.19V9.54a14.306,14.306,0,0,0,.11,2.17H9.91A15.723,15.723,0,0,0,10,9.54V6.45a16.759,16.759,0,0,1,.07-1.82,3.325,3.325,0,0,1,.06-1c-.31,1.09-.45,1.6-.63,2.1L8.14,9.62a12.4,12.4,0,0,0-.6,2.06Z"/><path d="M22.12,5.82c0-.67-.4-1-1.33-1s-1.37.3-1.58,1l-2.68-.43a3,3,0,0,1,1.18-1.7,5.466,5.466,0,0,1,3.2-.8,5.9,5.9,0,0,1,2.59.5,2.519,2.519,0,0,1,1.29,2.52V9.69a16.7,16.7,0,0,0,.1,2H22.12V11a4,4,0,0,1-2.71.84A3.4,3.4,0,0,1,17,11.11a2.561,2.561,0,0,1-.77-1.9,2.37,2.37,0,0,1,1-2.05,5.8,5.8,0,0,1,2.91-.91c.55,0,1-.07,2-.1Zm0,2.12a8.586,8.586,0,0,0-2.42.28,1,1,0,0,0-.81.92c0,.51.42.8,1.15.8a2.636,2.636,0,0,0,1.58-.53,1.4,1.4,0,0,0,.5-1.08Z"/><path d="M31.4,0a15.022,15.022,0,0,0-.11,2.12V6.07l1.54-1.53a7.873,7.873,0,0,0,1.22-1.42h3.73c-.55.48-.72.63-1.47,1.38l-2,2,2.34,3.41a20.5,20.5,0,0,0,1.3,1.8h-3.6a9.964,9.964,0,0,0-.93-1.88L32.36,8.06l-1.05,1v.56a9.978,9.978,0,0,0,.11,2.05H28.56a15.316,15.316,0,0,0,.11-2.13V2.14A16.629,16.629,0,0,0,28.56,0Z"/><path d="M43.26,8.19a1.77,1.77,0,0,0,1.79,1.75h.12a2.093,2.093,0,0,0,1.41-.52A1.356,1.356,0,0,0,47,8.69l2.44.69a4,4,0,0,1-.93,1.44A4.462,4.462,0,0,1,45.21,12,4.352,4.352,0,0,1,42,10.82a4.78,4.78,0,0,1-1.28-3.41,4.28,4.28,0,0,1,3.93-4.6,3.127,3.127,0,0,1,.53,0,4,4,0,0,1,4.2,3.27,9.485,9.485,0,0,1,.21,1.84,1.31,1.31,0,0,0,0,.28Zm3.65-1.93a1.62,1.62,0,0,0-1.76-1.38,1.689,1.689,0,0,0-1.84,1.38Z"/><path d="M61.7,11.68a10.765,10.765,0,0,0-.29-1.5L60.34,6.06c-.14-.52-.25-1.19-.43-2.11-.08.57-.25,1.45-.42,2.11l-1,4.13a9.594,9.594,0,0,0-.31,1.49H55.4c-.07-.41-.14-.7-.35-1.52l-2.24-8.4c-.2-.71-.39-1.36-.53-1.74h3.19a7.865,7.865,0,0,0,.2,1.52l.89,4.26c0,.21.14.87.31,2,.21-1.18.31-1.68.39-2l1.12-4.34A10.561,10.561,0,0,0,58.69,0h2.5a9.98,9.98,0,0,0,.32,1.44l1.13,4.31c.11.45.21.91.39,2.05a3.09,3.09,0,0,1,.12-.86,7.608,7.608,0,0,1,.19-1.2l.89-4.2A7.994,7.994,0,0,0,64.44,0h3.18a17.561,17.561,0,0,0-.52,1.74l-2.19,8.41a11.3,11.3,0,0,0-.35,1.53Z"/><path d="M72.91,8.19A1.77,1.77,0,0,0,74.7,9.94h.12a2.093,2.093,0,0,0,1.41-.52,1.358,1.358,0,0,0,.42-.72l2.44.69a3.989,3.989,0,0,1-.92,1.44A4.558,4.558,0,0,1,74.91,12a4.35,4.35,0,0,1-3.25-1.19A4.731,4.731,0,0,1,70.39,7.4,4.27,4.27,0,0,1,74.3,2.8a4.864,4.864,0,0,1,.54,0A4,4,0,0,1,79,6.07a9.485,9.485,0,0,1,.21,1.84,1.31,1.31,0,0,0,0,.28Zm3.65-1.93a1.64,1.64,0,0,0-1.77-1.38A1.68,1.68,0,0,0,73,6.26Z"/><path d="M82.57,11.68a14.709,14.709,0,0,0,.11-2.2V2.22A14.7,14.7,0,0,0,82.57,0h2.85a17.962,17.962,0,0,0-.1,2.2V3.4a4.685,4.685,0,0,1,0,.53,4.117,4.117,0,0,1,2.89-1c2.55,0,4,1.63,4,4.4A5,5,0,0,1,91,10.89,3.908,3.908,0,0,1,88.05,12a3.788,3.788,0,0,1-2.76-1v.74Zm5-6.67a2.19,2.19,0,0,0-2.19,2.17v.17a2.239,2.239,0,0,0,2,2.43h.08c1.21,0,2-1,2-2.48S88.7,5,87.46,5Z"/></g></g></svg>